<svg width="11" height="11" viewBox="0 0 11 11" fill="none" xmlns="http://www.w3.org/2000/svg">
<path fill-rule="evenodd" clip-rule="evenodd" d="M10.8327 5.49984C10.8327 8.44536 8.44487 10.8332 5.49935 10.8332C2.55383 10.8332 0.166016 8.44536 0.166016 5.49984C0.166016 2.55432 2.55383 0.166504 5.49935 0.166504C8.44487 0.166504 10.8327 2.55432 10.8327 5.49984ZM3.88315 3.88365C4.03936 3.72744 4.29263 3.72744 4.44884 3.88365L5.49933 4.93415L6.54982 3.88366C6.70603 3.72745 6.95929 3.72745 7.1155 3.88366C7.27171 4.03987 7.27171 4.29314 7.1155 4.44935L6.06502 5.49983L7.11549 6.55031C7.2717 6.70652 7.2717 6.95978 7.11549 7.11599C6.95928 7.2722 6.70602 7.2722 6.54981 7.11599L5.49933 6.06552L4.44885 7.116C4.29264 7.27221 4.03937 7.27221 3.88316 7.116C3.72695 6.95979 3.72695 6.70653 3.88316 6.55032L4.93365 5.49983L3.88315 4.44934C3.72694 4.29313 3.72694 4.03986 3.88315 3.88365Z" fill="#D34B57"/>
</svg>
