<svg width="14" height="14" viewBox="0 0 14 14" fill="none" xmlns="http://www.w3.org/2000/svg">
<path fill-rule="evenodd" clip-rule="evenodd" d="M7.00065 13.6667C10.6825 13.6667 13.6673 10.6819 13.6673 7.00004C13.6673 3.31814 10.6825 0.333374 7.00065 0.333374C3.31875 0.333374 0.333984 3.31814 0.333984 7.00004C0.333984 10.6819 3.31875 13.6667 7.00065 13.6667ZM7.50065 5.00004C7.50065 4.7239 7.27679 4.50004 7.00065 4.50004C6.72451 4.50004 6.50065 4.7239 6.50065 5.00004L6.50065 6.50006H5.00065C4.72451 6.50006 4.50065 6.72391 4.50065 7.00006C4.50065 7.2762 4.72451 7.50006 5.00065 7.50006H6.50065V9.00004C6.50065 9.27618 6.72451 9.50004 7.00065 9.50004C7.27679 9.50004 7.50065 9.27618 7.50065 9.00004L7.50065 7.50006H9.00065C9.27679 7.50006 9.50065 7.2762 9.50065 7.00006C9.50065 6.72391 9.27679 6.50006 9.00065 6.50006H7.50065V5.00004Z" fill="#8C61CB"/>
</svg>
