<svg width="11" height="11" viewBox="0 0 11 11" fill="none" xmlns="http://www.w3.org/2000/svg">
<path fill-rule="evenodd" clip-rule="evenodd" d="M10.8327 5.49984C10.8327 8.44536 8.44487 10.8332 5.49935 10.8332C2.55383 10.8332 0.166016 8.44536 0.166016 5.49984C0.166016 2.55432 2.55383 0.166504 5.49935 0.166504C8.44487 0.166504 10.8327 2.55432 10.8327 5.49984ZM7.64886 3.88366C7.80507 4.03987 7.80507 4.29314 7.64886 4.44935L4.98219 7.11601C4.82598 7.27222 4.57272 7.27222 4.41651 7.11601L3.34984 6.04935C3.19363 5.89314 3.19363 5.63987 3.34984 5.48366C3.50605 5.32745 3.75932 5.32745 3.91552 5.48366L4.69935 6.26748L5.89126 5.07557L7.08317 3.88366C7.23938 3.72745 7.49265 3.72745 7.64886 3.88366Z" fill="#01AA93"/>
</svg>
