<svg width="12" height="11" viewBox="0 0 12 11" fill="none" xmlns="http://www.w3.org/2000/svg">
<path d="M11.3327 5.49984C11.3327 8.44536 8.94487 10.8332 5.99935 10.8332C3.05383 10.8332 0.666016 8.44536 0.666016 5.49984C0.666016 2.55432 3.05383 0.166504 5.99935 0.166504C8.94487 0.166504 11.3327 2.55432 11.3327 5.49984Z" fill="#FAAD14"/>
<path fill-rule="evenodd" clip-rule="evenodd" d="M5.99935 2.9665C6.22026 2.9665 6.39935 3.14559 6.39935 3.3665V5.33415L7.61553 6.55033C7.77174 6.70654 7.77174 6.9598 7.61553 7.11601C7.45932 7.27222 7.20605 7.27222 7.04984 7.11601L5.71651 5.78268C5.64149 5.70767 5.59935 5.60592 5.59935 5.49984V3.3665C5.59935 3.14559 5.77844 2.9665 5.99935 2.9665Z" fill="white"/>
</svg>
