<svg width="24" height="24" viewBox="0 0 24 24" fill="none" xmlns="http://www.w3.org/2000/svg">
<path fill-rule="evenodd" clip-rule="evenodd" d="M12 24C6.34315 24 3.51472 24 1.75736 22.2426C0 20.4853 0 17.6569 0 12C0 6.34315 0 3.51472 1.75736 1.75736C3.51472 0 6.34315 0 12 0C17.6569 0 20.4853 0 22.2426 1.75736C24 3.51472 24 6.34315 24 12C24 17.6569 24 20.4853 22.2426 22.2426C20.4853 24 17.6569 24 12 24ZM8.36358 8.3636C8.71505 8.01213 9.2849 8.01213 9.63637 8.3636L12 10.7272L14.3636 8.36363C14.7151 8.01216 15.2849 8.01216 15.6364 8.36363C15.9878 8.7151 15.9878 9.28495 15.6364 9.63642L13.2728 12L15.6363 14.3636C15.9878 14.7151 15.9878 15.2849 15.6363 15.6364C15.2849 15.9878 14.715 15.9878 14.3636 15.6364L12 13.2728L9.6364 15.6364C9.28493 15.9879 8.71508 15.9879 8.3636 15.6364C8.01213 15.2849 8.01213 14.7151 8.3636 14.3636L10.7272 12L8.36358 9.6364C8.01211 9.28492 8.01211 8.71508 8.36358 8.3636Z" fill="#D34B57"/>
</svg>
