<svg width="26" height="26" viewBox="0 0 26 26" fill="none" xmlns="http://www.w3.org/2000/svg">
<path d="M16.5996 13.9C17.0967 13.9 17.4996 13.4971 17.4996 13C17.4996 12.5029 17.0967 12.1 16.5996 12.1H9.39961C8.90255 12.1 8.49961 12.5029 8.49961 13C8.49961 13.4971 8.90255 13.9 9.39961 13.9H16.5996Z" fill="#A8A7A7"/>
<path fill-rule="evenodd" clip-rule="evenodd" d="M13.0685 0.100006H12.9308C10.1607 0.0999914 7.98984 0.0999797 6.29606 0.327703C4.56237 0.56079 3.19434 1.0472 2.12057 2.12097C1.0468 3.19474 0.560393 4.56277 0.327306 6.29645C0.099583 7.99023 0.0995947 10.1611 0.0996096 12.9311V13.0689C0.0995947 15.8389 0.099583 18.0098 0.327306 19.7036C0.560393 21.4372 1.0468 22.8053 2.12057 23.879C3.19434 24.9528 4.56237 25.4392 6.29606 25.6723C7.98984 25.9 10.1607 25.9 12.9308 25.9H13.0685C15.8385 25.9 18.0094 25.9 19.7032 25.6723C21.4368 25.4392 22.8049 24.9528 23.8786 23.879C24.9524 22.8053 25.4388 21.4372 25.6719 19.7036C25.8996 18.0098 25.8996 15.8389 25.8996 13.0689V12.9312C25.8996 10.1611 25.8996 7.99024 25.6719 6.29645C25.4388 4.56277 24.9524 3.19474 23.8786 2.12097C22.8049 1.0472 21.4368 0.56079 19.7032 0.327703C18.0094 0.0999797 15.8385 0.0999914 13.0685 0.100006ZM3.39337 3.39376C4.07695 2.71018 5.00182 2.3179 6.5359 2.11165C8.09588 1.90192 10.1457 1.90001 12.9996 1.90001C15.8535 1.90001 17.9033 1.90192 19.4633 2.11165C20.9974 2.3179 21.9223 2.71018 22.6059 3.39376C23.2894 4.07735 23.6817 5.00221 23.888 6.5363C24.0977 8.09627 24.0996 10.1461 24.0996 13C24.0996 15.8539 24.0977 17.9037 23.888 19.4637C23.6817 20.9978 23.2894 21.9227 22.6059 22.6062C21.9223 23.2898 20.9974 23.6821 19.4633 23.8884C17.9033 24.0981 15.8535 24.1 12.9996 24.1C10.1457 24.1 8.09588 24.0981 6.5359 23.8884C5.00182 23.6821 4.07695 23.2898 3.39337 22.6062C2.70978 21.9227 2.31751 20.9978 2.11125 19.4637C1.90152 17.9037 1.89961 15.8539 1.89961 13C1.89961 10.1461 1.90152 8.09627 2.11125 6.5363C2.31751 5.00221 2.70978 4.07735 3.39337 3.39376Z" fill="#A8A7A7"/>
</svg>
